<svg xmlns="http://www.w3.org/2000/svg" viewBox="0 0 200 200">
<defs>
  <radialGradient id="body-wrapped-red" cx="35%" cy="30%" r="75%">
    <stop offset="0%" stop-color="#FF8A80"/>
    <stop offset="45%" stop-color="#E8483A"/>
    <stop offset="100%" stop-color="#A72B22"/>
  </radialGradient>
  <radialGradient id="hl-wrapped-red" cx="50%" cy="50%" r="50%">
    <stop offset="0%" stop-color="#FFFFFF" stop-opacity="0.95"/>
    <stop offset="100%" stop-color="#FFFFFF" stop-opacity="0"/>
  </radialGradient>
  <radialGradient id="shadow-wrapped-red" cx="50%" cy="50%" r="50%">
    <stop offset="0%" stop-color="#000000" stop-opacity="0.28"/>
    <stop offset="100%" stop-color="#000000" stop-opacity="0"/>
  </radialGradient>
</defs>
<ellipse cx="100" cy="176" rx="55" ry="12" fill="url(#shadow-wrapped-red)"/>

  <path d="M55 60 L15 40 L30 75 L15 100 L30 125 L15 160 L55 140 Z" fill="#A72B22" opacity="0.95"/>
  <path d="M145 60 L185 40 L170 75 L185 100 L170 125 L185 160 L145 140 Z" fill="#A72B22" opacity="0.95"/>
  <line x1="25" y1="55" x2="48" y2="66" stroke="#FFFFFF" stroke-width="2" opacity="0.6"/>
  <line x1="25" y1="105" x2="48" y2="98" stroke="#FFFFFF" stroke-width="2" opacity="0.6"/>
  <line x1="175" y1="55" x2="152" y2="66" stroke="#FFFFFF" stroke-width="2" opacity="0.6"/>
  <line x1="175" y1="105" x2="152" y2="98" stroke="#FFFFFF" stroke-width="2" opacity="0.6"/>
  <path d="M100 28 C142 28 160 55 158 90 C156 128 150 172 100 172 C50 172 44 128 42 90 C40 55 58 28 100 28 Z" fill="url(#body-wrapped-red)" stroke="#A72B22" stroke-width="3" />
  <ellipse cx="78" cy="68" rx="26" ry="16" fill="url(#hl-wrapped-red)" transform="rotate(-25 78 68)"/>
  <circle cx="122" cy="62" r="6" fill="#FFFFFF" opacity="0.85"/>

</svg>